<?xml version="1.0" encoding="utf-8"?>
<svg xmlns="http://www.w3.org/2000/svg" viewBox="0 0 30 30" width="50" height="50">
  <path d="M6,7v17c0,0.76,0.3,1.47,0.78,2c0.55,0.61,1.34,1,2.22,1h12c0.88,0,1.67-0.39,2.22-1C23.7,25.47,24,24.76,24,24V7 c0-1.64-1.36-3-3-3h-3V3c0-0.55-0.45-1-1-1h-4c-0.55,0-1,0.45-1,1v1H9C7.36,4,6,5.36,6,7z M11.02,19.54l3.03-7.73 c0.05-0.13,0.16-0.22,0.29-0.22c0.09,0,0.17,0.04,0.23,0.09l1.33,1.27l2.49-3.8C18.45,9.06,18.55,9,18.66,9 C18.85,9,19,9.15,19,9.34c0,0.04-0.01,0.07-0.02,0.11l-2.34,7.74c-0.05,0.13-0.16,0.22-0.3,0.22c-0.08,0-0.15-0.03-0.2-0.08 l-0.01,0.01l-1.47-1.22l-3.08,3.75C11.52,19.94,11.43,20,11.33,20C11.14,20,11,19.85,11,19.66C11,19.62,11.01,19.59,11.02,19.54z" fill="#FFFFFF" />
</svg>