<?xml version="1.0" encoding="utf-8"?>
<svg xmlns="http://www.w3.org/2000/svg" viewBox="0 0 24 24" width="50" height="50">
  <path d="M5 3C3.895 3 3 3.895 3 5L3 19C3 20.105 3.895 21 5 21L19 21C20.105 21 21 20.105 21 19L21 5C21 3.895 20.105 3 19 3L5 3 z M 12 5.34375C12.255875 5.34375 12.512031 5.4417187 12.707031 5.6367188L14.070312 7L16 7C16.552 7 17 7.448 17 8L17 9.9296875L18.363281 11.292969C18.754281 11.683969 18.754281 12.317031 18.363281 12.707031L17 14.070312L17 16C17 16.552 16.552 17 16 17L14.070312 17L12.707031 18.363281C12.316031 18.753281 11.682969 18.753281 11.292969 18.363281L9.9296875 17L8 17C7.448 17 7 16.552 7 16L7 14.070312L5.6367188 12.707031C5.2457187 12.316031 5.2457187 11.682969 5.6367188 11.292969L7 9.9296875L7 8C7 7.448 7.448 7 8 7L9.9296875 7L11.292969 5.6367188C11.488469 5.4417187 11.744125 5.34375 12 5.34375 z M 12 8L11 9L9 9L9 11L8 12L9 13L9 15L11 15L12 16L12 8 z" fill="#FFFFFF" />
</svg>