<?xml version="1.0" encoding="utf-8"?>
<svg xmlns="http://www.w3.org/2000/svg" viewBox="0 0 24 24" width="480" height="480">
  <path d="M5 0L5 2L7 2L7 0 Z M 9 0L9 2L11 2L11 0 Z M 13 0L13 2L15 2L15 0 Z M 17 0L17 2L19 2L19 0 Z M 3 3L3 21L21 21L21 3 Z M 0 5L0 7L2 7L2 5 Z M 6.5 5C7.300781 5 8 5.699219 8 6.5C8 7.300781 7.300781 8 6.5 8C5.699219 8 5 7.300781 5 6.5C5 5.699219 5.699219 5 6.5 5 Z M 22 5L22 7L24 7L24 5 Z M 0 9L0 11L2 11L2 9 Z M 22 9L22 11L24 11L24 9 Z M 0 13L0 15L2 15L2 13 Z M 22 13L22 15L24 15L24 13 Z M 17.5 16C18.300781 16 19 16.699219 19 17.5C19 18.300781 18.300781 19 17.5 19C16.699219 19 16 18.300781 16 17.5C16 16.699219 16.699219 16 17.5 16 Z M 0 17L0 19L2 19L2 17 Z M 22 17L22 19L24 19L24 17 Z M 5 22L5 24L7 24L7 22 Z M 9 22L9 24L11 24L11 22 Z M 13 22L13 24L15 24L15 22 Z M 17 22L17 24L19 24L19 22Z" fill="#FFFFFF" />
</svg>