<?xml version="1.0" encoding="utf-8"?>
<svg xmlns="http://www.w3.org/2000/svg" viewBox="0 0 24 24" width="50" height="50">
  <path d="M21,6H3C1.895,6,1,6.895,1,8v9c0,1.105,0.895,2,2,2h18c1.105,0,2-0.895,2-2V8C23,6.895,22.105,6,21,6z M11.5,10h1 c0.276,0,0.5,0.224,0.5,0.5v1c0,0.276-0.224,0.5-0.5,0.5h-1c-0.276,0-0.5-0.224-0.5-0.5v-1C11,10.224,11.224,10,11.5,10z M7.5,10h1 C8.776,10,9,10.224,9,10.5v1C9,11.776,8.776,12,8.5,12h-1C7.224,12,7,11.776,7,11.5v-1C7,10.224,7.224,10,7.5,10z M4.5,16h-1 C3.224,16,3,15.776,3,15.5v-1C3,14.224,3.224,14,3.5,14h1C4.776,14,5,14.224,5,14.5v1C5,15.776,4.776,16,4.5,16z M4.5,12h-1 C3.224,12,3,11.776,3,11.5v-1C3,10.224,3.224,10,3.5,10h1C4.776,10,5,10.224,5,10.5v1C5,11.776,4.776,12,4.5,12z M16.5,16h-9 C7.224,16,7,15.776,7,15.5v-1C7,14.224,7.224,14,7.5,14h9c0.276,0,0.5,0.224,0.5,0.5v1C17,15.776,16.776,16,16.5,16z M16.5,12h-1 c-0.276,0-0.5-0.224-0.5-0.5v-1c0-0.276,0.224-0.5,0.5-0.5h1c0.276,0,0.5,0.224,0.5,0.5v1C17,11.776,16.776,12,16.5,12z M20.5,16 h-1c-0.276,0-0.5-0.224-0.5-0.5v-1c0-0.276,0.224-0.5,0.5-0.5h1c0.276,0,0.5,0.224,0.5,0.5v1C21,15.776,20.776,16,20.5,16z M20.5,12h-1c-0.276,0-0.5-0.224-0.5-0.5v-1c0-0.276,0.224-0.5,0.5-0.5h1c0.276,0,0.5,0.224,0.5,0.5v1C21,11.776,20.776,12,20.5,12 z" fill="#FFFFFF" />
</svg>