<?xml version="1.0" encoding="utf-8"?>
<svg xmlns="http://www.w3.org/2000/svg" viewBox="0 0 48 48" width="50" height="50">
  <path d="M16.5 5 A 1.50015 1.50015 0 0 0 15 6.5L15 14L11.5 14C7.364 14 4 17.364 4 21.5L4 35.5C4 39.636 7.364 43 11.5 43L36.5 43C40.636 43 44 39.636 44 35.5L44 21.5C44 17.364 40.636 14 36.5 14L33 14L33 6.5 A 1.50015 1.50015 0 0 0 31.5 5L16.5 5 z M 18 8L30 8L30 14L18 14L18 8 z M 24 20C26.209 20 28 21.791 28 24C28 26.209 26.209 28 24 28C21.791 28 20 26.209 20 24C20 21.791 21.791 20 24 20 z M 18.447266 30L29.552734 30C30.352734 30 31 30.647266 31 31.447266L31 32.751953C31 34.974953 28.163 37 24 37C19.837 37 17 34.974953 17 32.751953L17 31.447266C17 30.647266 17.647266 30 18.447266 30 z" fill="#FFFFFF" />
</svg>