<?xml version="1.0" encoding="utf-8"?>
<svg xmlns="http://www.w3.org/2000/svg" viewBox="0 0 48 48" width="50" height="50">
  <path d="M8.5 5C6.019 5 4 7.019 4 9.5L4 30.5C4 32.981 6.019 35 8.5 35L17 35L17 40L13.5 40 A 1.50015 1.50015 0 1 0 13.5 43L18.253906 43 A 1.50015 1.50015 0 0 0 18.740234 43L29.253906 43 A 1.50015 1.50015 0 0 0 29.740234 43L34.5 43 A 1.50015 1.50015 0 1 0 34.5 40L31 40L31 35L39.5 35C41.981 35 44 32.981 44 30.5L44 9.5C44 7.019 41.981 5 39.5 5L8.5 5 z M 24 11C24.829 11 25.5 11.671 25.5 12.5L25.5 21.5C25.5 22.329 24.829 23 24 23C23.171 23 22.5 22.329 22.5 21.5L22.5 12.5C22.5 11.671 23.171 11 24 11 z M 24 25C25.105 25 26 25.895 26 27C26 28.105 25.105 29 24 29C22.895 29 22 28.105 22 27C22 25.895 22.895 25 24 25 z M 20 35L28 35L28 40L20 40L20 35 z" fill="#FFFFFF" />
</svg>