<?xml version="1.0" encoding="utf-8"?>
<svg xmlns="http://www.w3.org/2000/svg" viewBox="0 0 32 32" width="512" height="512">
  <path d="M12.90625 5C11.59375 5 10.171875 5.328125 8.59375 5.9375L8.125 6.09375L8 6.59375L6.21875 12.71875L5.71875 14.5L7.46875 13.96875C8.632813 13.609375 9.605469 13.4375 10.46875 13.4375L10.53125 13.4375C11.992188 13.445313 13.105469 13.890625 14.125 14.46875L15.25 15.09375L15.59375 13.875L17.46875 7.40625L17.6875 6.65625L17.03125 6.25C15.972656 5.597656 14.640625 5 12.90625 5 Z M 12.90625 7C13.875 7 14.617188 7.273438 15.3125 7.625L13.96875 12.21875C12.980469 11.796875 11.898438 11.445313 10.5625 11.4375L10.46875 11.4375C9.890625 11.4375 9.214844 11.640625 8.59375 11.75L9.78125 7.6875C10.960938 7.277344 12.046875 7 12.90625 7 Z M 18.96875 7.625L18.59375 8.84375L16.71875 15.375L16.5 16.125L17.15625 16.5C18.253906 17.167969 19.632813 17.78125 21.34375 17.78125C22.535156 17.78125 23.957031 17.730469 25.5625 17.0625L26 16.875L26.125 16.40625L27.96875 10L28.4375 8.28125L26.75 8.75C25.5625 9.070313 24.816406 9 23.75 9C22.109375 9 20.964844 8.753906 20.0625 8.25 Z M 20.25 10.4375C21.289063 10.792969 22.417969 11 23.75 11C24.261719 11 25 10.882813 25.625 10.84375L24.375 15.25C23.300781 15.621094 22.347656 15.78125 21.34375 15.78125C20.367188 15.78125 19.609375 15.496094 18.875 15.125 Z M 10 15.40625C8.636719 15.40625 7.386719 15.796875 5.8125 16.40625L5.34375 16.59375L5.21875 17.0625L3.375 23.25L2.84375 25.03125L4.625 24.5C5.671875 24.191406 7.042969 24 7.90625 24C9.484375 24 10.074219 24.296875 11.15625 24.90625L12.25 25.53125L12.59375 24.3125L14.5 17.75L14.71875 17L14.0625 16.625C12.894531 15.914063 11.585938 15.40625 10 15.40625 Z M 10 17.40625C10.917969 17.40625 11.644531 17.636719 12.375 18L11 22.65625C10.152344 22.289063 9.210938 22 7.90625 22C7.261719 22 6.480469 22.214844 5.71875 22.34375L6.96875 18.1875C8.179688 17.742188 9.144531 17.40625 10 17.40625 Z M 16 17.90625L15.65625 19.125L13.78125 25.59375L13.5625 26.34375L14.1875 26.71875C15.242188 27.375 16.609375 28 18.34375 28C19.566406 28 20.914063 27.839844 22.53125 27.21875L23 27.0625L23.125 26.5625L24.96875 20.40625L25.46875 18.71875L23.75 19.15625C22.675781 19.421875 21.730469 19.53125 20.875 19.53125C19.261719 19.53125 18.117188 19.101563 17.09375 18.53125 Z M 17.25 20.75C18.277344 21.183594 19.417969 21.53125 20.875 21.53125C21.410156 21.53125 22.023438 21.390625 22.59375 21.3125L21.375 25.4375C20.242188 25.8125 19.28125 26 18.34375 26C17.355469 26 16.609375 25.707031 15.90625 25.34375Z" fill="#FFFFFF" />
</svg>